<svg xmlns="http://www.w3.org/2000/svg" xmlns:xlink="http://www.w3.org/1999/xlink" id="visual" version="1.1" viewBox="0 47.21 1400 153.79"><path d="M0 93L38.8 84.3C77.7 75.7 155.3 58.3 233.2 63.7C311 69 389 97 466.8 97.7C544.7 98.3 622.3 71.7 700 69.5C777.7 67.3 855.3 89.7 933.2 85.5C1011 81.3 1089 50.7 1166.8 47.5C1244.7 44.3 1322.3 68.7 1361.2 80.8L1400 93L1400 201L1361.2 201C1322.3 201 1244.7 201 1166.8 201C1089 201 1011 201 933.2 201C855.3 201 777.7 201 700 201C622.3 201 544.7 201 466.8 201C389 201 311 201 233.2 201C155.3 201 77.7 201 38.8 201L0 201Z" fill="#8b26bb"/><path d="M0 130L38.8 131.7C77.7 133.3 155.3 136.7 233.2 128.2C311 119.7 389 99.3 466.8 84C544.7 68.7 622.3 58.3 700 58.8C777.7 59.3 855.3 70.7 933.2 80.5C1011 90.3 1089 98.7 1166.8 104.8C1244.7 111 1322.3 115 1361.2 117L1400 119L1400 201L1361.2 201C1322.3 201 1244.7 201 1166.8 201C1089 201 1011 201 933.2 201C855.3 201 777.7 201 700 201C622.3 201 544.7 201 466.8 201C389 201 311 201 233.2 201C155.3 201 77.7 201 38.8 201L0 201Z" fill="#7223ac"/><path d="M0 128L38.8 135.5C77.7 143 155.3 158 233.2 155C311 152 389 131 466.8 131.8C544.7 132.7 622.3 155.3 700 163.8C777.7 172.3 855.3 166.7 933.2 156.8C1011 147 1089 133 1166.8 125.2C1244.7 117.3 1322.3 115.7 1361.2 114.8L1400 114L1400 201L1361.2 201C1322.3 201 1244.7 201 1166.8 201C1089 201 1011 201 933.2 201C855.3 201 777.7 201 700 201C622.3 201 544.7 201 466.8 201C389 201 311 201 233.2 201C155.3 201 77.7 201 38.8 201L0 201Z" fill="#5a1f9c"/><path d="M0 142L38.8 150.2C77.7 158.3 155.3 174.7 233.2 180.3C311 186 389 181 466.8 173.8C544.7 166.7 622.3 157.3 700 155.7C777.7 154 855.3 160 933.2 163.5C1011 167 1089 168 1166.8 166.8C1244.7 165.7 1322.3 162.3 1361.2 160.7L1400 159L1400 201L1361.2 201C1322.3 201 1244.7 201 1166.8 201C1089 201 1011 201 933.2 201C855.3 201 777.7 201 700 201C622.3 201 544.7 201 466.8 201C389 201 311 201 233.2 201C155.3 201 77.7 201 38.8 201L0 201Z" fill="#411a8c"/></svg>