<svg xmlns="http://www.w3.org/2000/svg" xmlns:xlink="http://www.w3.org/1999/xlink" id="visual" version="1.1" viewBox="0 41.88 1400 59.12"><path d="M0 51L58.3 54.5C116.7 58 233.3 65 350 66.5C466.7 68 583.3 64 700 57.2C816.7 50.3 933.3 40.7 1050 42C1166.7 43.3 1283.3 55.7 1341.7 61.8L1400 68L1400 101L1341.7 101C1283.3 101 1166.7 101 1050 101C933.3 101 816.7 101 700 101C583.3 101 466.7 101 350 101C233.3 101 116.7 101 58.3 101L0 101Z" fill="#ffffff" stroke-linecap="round" stroke-linejoin="miter"/></svg>