<svg xmlns="http://www.w3.org/2000/svg" xmlns:xlink="http://www.w3.org/1999/xlink" id="visual" version="1.1" viewBox="0 23.27 1400 77.73"><path d="M0 92L26 85.8C52 79.7 104 67.3 155.8 58.8C207.7 50.3 259.3 45.7 311.2 49.7C363 53.7 415 66.3 466.8 74.8C518.7 83.3 570.3 87.7 622.2 77.7C674 67.7 726 43.3 777.8 31.8C829.7 20.3 881.3 21.7 933.2 28.5C985 35.3 1037 47.7 1088.8 46.8C1140.7 46 1192.3 32 1244.2 35.8C1296 39.7 1348 61.3 1374 72.2L1400 83L1400 101L1374 101C1348 101 1296 101 1244.2 101C1192.3 101 1140.7 101 1088.8 101C1037 101 985 101 933.2 101C881.3 101 829.7 101 777.8 101C726 101 674 101 622.2 101C570.3 101 518.7 101 466.8 101C415 101 363 101 311.2 101C259.3 101 207.7 101 155.8 101C104 101 52 101 26 101L0 101Z" fill="#240b52" stroke-linecap="round" stroke-linejoin="miter"/></svg>