<svg id="visual" viewBox="0 0 900 1200" width="900" height="1200" xmlns="http://www.w3.org/2000/svg" xmlns:xlink="http://www.w3.org/1999/xlink" version="1.1"><path d="M70 0L70 25C70 50 70 100 67.7 150C65.3 200 60.7 250 60.2 300C59.7 350 63.3 400 63.8 450C64.3 500 61.7 550 62.5 600C63.3 650 67.7 700 69.7 750C71.7 800 71.3 850 70.5 900C69.7 950 68.3 1000 66.5 1050C64.7 1100 62.3 1150 61.2 1175L60 1200L0 1200L0 1175C0 1150 0 1100 0 1050C0 1000 0 950 0 900C0 850 0 800 0 750C0 700 0 650 0 600C0 550 0 500 0 450C0 400 0 350 0 300C0 250 0 200 0 150C0 100 0 50 0 25L0 0Z" fill="#dcb0ff"></path><path d="M48 0L48.3 25C48.7 50 49.3 100 50.8 150C52.3 200 54.7 250 54.2 300C53.7 350 50.3 400 49.8 450C49.3 500 51.7 550 52.7 600C53.7 650 53.3 700 53.3 750C53.3 800 53.7 850 54.3 900C55 950 56 1000 57.2 1050C58.3 1100 59.7 1150 60.3 1175L61 1200L0 1200L0 1175C0 1150 0 1100 0 1050C0 1000 0 950 0 900C0 850 0 800 0 750C0 700 0 650 0 600C0 550 0 500 0 450C0 400 0 350 0 300C0 250 0 200 0 150C0 100 0 50 0 25L0 0Z" fill="#cf95ff"></path><path d="M51 0L50.5 25C50 50 49 100 47 150C45 200 42 250 39.8 300C37.7 350 36.3 400 35.8 450C35.3 500 35.7 550 35.8 600C36 650 36 700 37.2 750C38.3 800 40.7 850 41.2 900C41.7 950 40.3 1000 41.5 1050C42.7 1100 46.3 1150 48.2 1175L50 1200L0 1200L0 1175C0 1150 0 1100 0 1050C0 1000 0 950 0 900C0 850 0 800 0 750C0 700 0 650 0 600C0 550 0 500 0 450C0 400 0 350 0 300C0 250 0 200 0 150C0 100 0 50 0 25L0 0Z" fill="#c17aff"></path><path d="M26 0L27.2 25C28.3 50 30.7 100 32.3 150C34 200 35 250 35.7 300C36.3 350 36.7 400 36.3 450C36 500 35 550 35.3 600C35.7 650 37.3 700 38.3 750C39.3 800 39.7 850 38.8 900C38 950 36 1000 34.7 1050C33.3 1100 32.7 1150 32.3 1175L32 1200L0 1200L0 1175C0 1150 0 1100 0 1050C0 1000 0 950 0 900C0 850 0 800 0 750C0 700 0 650 0 600C0 550 0 500 0 450C0 400 0 350 0 300C0 250 0 200 0 150C0 100 0 50 0 25L0 0Z" fill="#b15dff"></path><path d="M22 0L22.7 25C23.3 50 24.7 100 24.5 150C24.3 200 22.7 250 23.3 300C24 350 27 400 27 450C27 500 24 550 22.7 600C21.3 650 21.7 700 22.7 750C23.7 800 25.3 850 25.5 900C25.7 950 24.3 1000 22.8 1050C21.3 1100 19.7 1150 18.8 1175L18 1200L0 1200L0 1175C0 1150 0 1100 0 1050C0 1000 0 950 0 900C0 850 0 800 0 750C0 700 0 650 0 600C0 550 0 500 0 450C0 400 0 350 0 300C0 250 0 200 0 150C0 100 0 50 0 25L0 0Z" fill="#a03dff"></path><path d="M13 0L12.8 25C12.7 50 12.3 100 13 150C13.7 200 15.3 250 15 300C14.7 350 12.3 400 12.3 450C12.3 500 14.7 550 15.7 600C16.7 650 16.3 700 15.2 750C14 800 12 850 11.7 900C11.3 950 12.7 1000 13.8 1050C15 1100 16 1150 16.5 1175L17 1200L0 1200L0 1175C0 1150 0 1100 0 1050C0 1000 0 950 0 900C0 850 0 800 0 750C0 700 0 650 0 600C0 550 0 500 0 450C0 400 0 350 0 300C0 250 0 200 0 150C0 100 0 50 0 25L0 0Z" fill="#8c00ff"></path></svg>